<svg width="48" height="48" viewBox="0 0 48 48" fill="none" xmlns="http://www.w3.org/2000/svg">
  <!-- Outer glow effect -->
  <defs>
    <filter id="glow" x="-50%" y="-50%" width="200%" height="200%">
      <feGaussianBlur stdDeviation="2" result="coloredBlur"/>
      <feMerge>
        <feMergeNode in="coloredBlur"/>
        <feMergeNode in="SourceGraphic"/>
      </feMerge>
    </filter>
    <linearGradient id="baseGradient" x1="0%" y1="0%" x2="100%" y2="100%">
      <stop offset="0%" style="stop-color:#0052FF"/>
      <stop offset="100%" style="stop-color:#0041CC"/>
    </linearGradient>
  </defs>
  
  <!-- Main circle with gradient -->
  <circle cx="24" cy="24" r="22" fill="url(#baseGradient)" filter="url(#glow)"/>
  
  <!-- White border -->
  <circle cx="24" cy="24" r="22" stroke="white" stroke-width="2" fill="none"/>
  
  <!-- Base "B" logo - simplified -->
  <path d="M16 14h10c3.5 0 6 2.5 6 6 0 2-1 3.5-2.5 4.5 2 1 3.5 3 3.5 5.5 0 4-3 6-7 6H16V14zm4 8h5c1.5 0 2.5-1 2.5-2.5S26.5 17 25 17h-5v5zm0 10h6c2 0 3-1.2 3-3s-1-3-3-3h-6v6z" fill="white"/>
</svg>

